<svg height="512" viewBox="0 0 60 56" width="512" xmlns="http://www.w3.org/2000/svg">
    <g id="Page-1" fill="none" fill-rule="evenodd">
        <g id="035---Dirty-Soap" fill-rule="nonzero">
            <path id="Shape"
                d="m45 6h-30c-7.73198642.00000012-13.99999979 6.2680136-13.99999979 14s6.26801337 13.9999999 13.99999979 14h30c7.7319864-.0000001 13.9999998-6.2680136 13.9999998-14s-6.2680134-13.99999988-13.9999998-14zm5.8 17.8c-1.4031076 1.4100093-3.3108209 2.2018903-5.3 2.2h-31c-3.0314165-.0026663-5.76315757-1.8299505-6.92286976-4.6307649-1.15971219-2.8008143-.51933327-6.0243669 1.62286976-8.1692351 1.3493056-1.3646578 3.1810827-2.1440609 5.1-2.17l16.19-.03h15.01c3.0314165.0026663 5.7631576 1.8299505 6.9228698 4.6307649 1.1597122 2.8008143.5193332 6.0243669-1.6228698 8.1692351z"
                fill="#e8edfc" />
            <path id="Shape"
                d="m45 6h-3c5.0017183-.00000007 9.6234967 2.66838483 12.1243558 6.9999999 2.5008592 4.3316151 2.5008592 9.6683851 0 14.0000002-2.5008591 4.3316151-7.1226375 7-12.1243558 6.9999999h3c7.7319864-.0000001 13.9999998-6.2680136 13.9999998-14s-6.2680134-13.99999988-13.9999998-14z"
                fill="#cad9fc" />
            <path id="Shape"
                d="m59.0000021 20-.0000021 13c.002542 4.6144721-2.2726388 8.9328252-6.08 11.54-.5281731-3.3402859-3.5293896-5.7175372-6.9018786-5.4669497-3.3724891.2505874-5.9894121 3.0452856-6.0181214 6.4269497-.0017526.5054904.0587016 1.0092758.18 1.5h-25.18c-7.7319865 0-14-6.2680135-14-14v-13c0 7.7319865 6.2680135 14 14 14h30c3.7130309 0 7.2739856-1.4749958 9.8994949-4.1005051s4.1005051-6.186464 4.1005072-9.8994949z"
                fill="#a4c2f7" />
            <path id="Shape"
                d="m53 18.5c-.0060581 4.1396237-3.3603763 7.4939419-7.5 7.5h-31c-3.0314165-.0026663-5.76315757-1.8299505-6.92286976-4.6307649-1.15971219-2.8008143-.51933327-6.0243669 1.62286976-8.1692351 1.3493056-1.3646578 3.1810827-2.1440609 5.1-2.17l16.19-.03h15.01c4.1421356 0 7.5 3.3578644 7.5 7.5z"
                fill="#a4c2f7" />
            <circle id="Oval" cx="20" cy="6" fill="#e8edfc" r="3" />
            <path id="Shape"
                d="m53 45.5c0 1.7239072-.6848195 3.3772076-1.9038059 4.5961941-1.2189865 1.2189864-2.8722869 1.9038059-4.5961941 1.9038059-.8691561.0029582-1.7298679-.170545-2.53-.51.0202591-.1625432.0302789-.3261994.03-.49 0-2.209139-1.790861-4-4-4h.18c-.1212984-.4907242-.1817526-.9945096-.18-1.5-.0120533-3.4086732 2.613436-6.246529 6.0127596-6.4991103s6.4153906 2.1660876 6.9072404 5.5391103c.0572332.3167149.084022.6381806.08.96z"
                fill="#e8edfc" />
            <path id="Shape"
                d="m52.92 44.54c-.2480074-1.8019297-1.2493034-3.4138681-2.7547357-4.4347167-1.5054324-1.0208487-3.3734608-1.3546278-5.1392643-.9182833 2.5774571.6072189 4.5196577 2.7315752 4.894 5.353.0572332.3167149.084022.6381806.08.96-.0021099 3.0103155-2.0709365 5.6253124-5 6.32 1.9339615.4642664 3.9740171.0155488 5.5346762-1.2173719s2.4693659-3.1137254 2.4653238-5.1026281c.004022-.3218194-.0227668-.6432851-.08-.96z"
                fill="#cad9fc" />
            <path id="Shape"
                d="m44 51c.0002789.1638006-.0097409.3274568-.03.49-.2642117 2.1451211-2.1846621 3.6923983-4.3368827 3.4941595s-3.7577204-2.0702877-3.6256413-4.2275793c.1320791-2.1572917 1.953962-3.8195008 4.1142914-3.7537059 2.1603295.0657948 3.8776812 1.8357947 3.8782326 3.9971257z"
                fill="#e8edfc" />
            <path id="Shape"
                d="m40 47c-.5146869.0021442-1.0240797.1040228-1.5.3 1.5082666.61012 2.4967043 2.0730078 2.5 3.7.0002789.1638006-.0097409.3274568-.03.49-.1807212 1.4385735-1.1257495 2.6667278-2.47 3.21 1.1519247.4701427 2.4572081.3761782 3.5299152-.2541107 1.0727071-.630289 1.7901069-1.7247896 1.9400848-2.9598893.0200924-.1612189.0301119-.3235339.03-.486 0-2.209139-1.790861-4-4-4z"
                fill="#cad9fc" />
            <circle id="Oval" cx="37" cy="18.501" fill="#e8edfc" r="2.5" />
            <path id="Shape"
                d="m20 17.5c0-1.3807119 1.1192881-2.5 2.5-2.5 1.7407482-.033636 3.2204268-1.2810201 3.548-2.991.3085075-1.3125861 1.602335-2.14404143 2.9244532-1.879348 1.3221183.2646935 2.1961335 1.5301598 1.9755468 2.860348-.7843786 4.0520598-4.3207871 6.9865086-8.448 7.01-1.3807119 0-2.5-1.1192881-2.5-2.5z"
                fill="#e8edfc" />
            <path id="Shape"
                d="m4 33v-13c0-7.7319865 6.2680135-14 14-14h2c.0023458-1.06748719.574188-2.05258066 1.5-2.584-.4540847-.26964885-.9718941-.41325465-1.5-.416-1.6568542 0-3 1.34314575-3 3h-2c-7.7319865 0-14 6.2680135-14 14v13c0 7.7319865 6.2680135 14 14 14h3c-7.7319865 0-14-6.2680135-14-14z"
                fill="#fff" />
            <path id="Shape"
                d="m4.075 40.026-1.681 1.084c-.7749789-1.2030947-1.37435096-2.5106013-1.78-3.883-.39122546-1.3755341-.59770361-2.797005-.614-4.227h2c.01609577 1.2394322.1953023 2.4713511.533 3.664.35152968 1.1882848.8707589 2.3203526 1.542 3.362z"
                fill="#fff" />
            <g fill="#428dff">
                <path id="Shape"
                    d="m40.5 18.5c0-1.9329966-1.5670034-3.5-3.5-3.5s-3.5 1.5670034-3.5 3.5 1.5670034 3.5 3.5 3.5 3.5-1.5670034 3.5-3.5zm-5 0c0-.8284271.6715729-1.5 1.5-1.5s1.5.6715729 1.5 1.5-.6715729 1.5-1.5 1.5-1.5-.6715729-1.5-1.5z" />
                <path id="Shape"
                    d="m45 5h-16c-.5522847 0-1 .44771525-1 1s.4477153 1 1 1h16c7.1797017 0 13 5.8202983 13 13s-5.8202983 13-13 13h-21c-.5522847 0-1 .4477153-1 1s.4477153 1 1 1h21c3.9805013.0072132 7.7992833-1.5744371 10.609-4.394.9307624-.9399288 1.7345808-1.9975669 2.391-3.146v5.54c-.0027244 3.7779484-1.6506828 7.3673873-4.514 9.832-.2386855-.644864-.5665386-1.2531088-.974-1.807.7913677-.7382352 1.4696509-1.5890375 2.013-2.525.2484017-.4748504.0783237-1.0611063-.3856398-1.3292932-.4639634-.268187-1.0568642-.1229594-1.3443602.3292932-.4522614.7774227-1.0181798 1.4828826-1.679 2.093-1.7455856-1.3680391-4.0085796-1.8901928-6.1770936-1.4252767-2.1685141.4649161-4.0185601 1.8688804-5.0499064 3.8322767h-24.889c-3.2130236-.009558-6.17997267-1.7223574-7.795-4.5-.17026286-.3254784-.50526134-.5314125-.87254992-.5363839-.36728859-.0049714-.70773813.1918202-.88674796.5125711-.17900984.3207508-.16776149.7138237.02929788 1.0238128 1.97312518 3.3946112 5.5986192 5.4880723 9.525 5.5h24.153c-.1016093.4935372-.1528719.9961118-.153 1.5 0 .169.017.334.029.5h-24.029c-2.1734623-.0186036-4.3100657-.5634769-6.227-1.588-1.90249421-1.0546498-3.51652793-2.5608523-4.7-4.386-.3031019-.4419166-.89421275-.577959-1.36-.313-.23727412.1350387-.40706184.3633725-.46807587.6294772-.06101402.2661048-.00766439.5456008.14707587.7705228 1.36363066 2.1048499 3.22480248 3.8413483 5.419 5.056 2.2122272 1.1847136 4.6795825 1.8131359 7.189 1.831h21.026c-.6618067.8603889-1.0223232 1.9145307-1.026 3-.0037002 2.4132161 1.7197247 4.4834211 4.0936162 4.917316s4.7181981-.8928187 5.5683838-3.151316c2.242296.5745944 4.6242848.0788374 6.4511398-1.3426585s2.8927858-3.6086029 2.8868602-5.9233415c0-.181-.009-.342-.019-.5 3.7851183-2.8281095 6.015621-7.275033 6.019-12v-13c-.0093685-8.2803876-6.7196124-14.99063148-15-15zm-5 49c-1.6568542 0-3-1.3431458-3-3s1.3431458-3 3-3 3 1.3431458 3 3-1.3431458 3-3 3zm6.5-3c-.5167773-.0068287-1.0299412-.0873052-1.524-.239-.1076847-2.2638187-1.7245834-4.1720875-3.94-4.65-.0236564-.2028122-.035676-.406813-.036-.611-.0073417-2.8908116 2.226383-5.2929828 5.1101043-5.4954602s5.4312064 1.8639862 5.8278957 4.7274602c.0454437.253394.0662076.5105977.062.768-.0033068 3.0361953-2.4638047 5.4966932-5.5 5.5z" />
                <path id="Shape"
                    d="m1.593 37.954c-.55228473.0027614-1.00223852-.4427153-1.00499994-.995-.00276143-.5522847.44271521-1.0022385.99499994-1.005h.01c.55228475 0 1 .4477153 1 1s-.44771525 1-1 1z" />
                <path id="Shape"
                    d="m2 33v-5.548c2.66897802 4.6624743 7.62765707 7.5415596 13 7.548h1c.5522847 0 1-.4477153 1-1s-.4477153-1-1-1h-1c-6.43571393.0034566-11.90530355-4.702506-12.86241593-11.0666525-.95711238-6.3641466 2.88636665-12.47071383 9.03841593-14.3603475.5186354-.16956658.805596-.72358566.6448784-1.24503108s-.7097739-.81779103-1.2338784-.66596892c-2.33690512.72667707-4.46267733 2.00934641-6.195 3.738-2.8168021 2.80772-4.39756617 6.622861-4.392 10.6v13c0 .5522847.44771525 1 1 1s1-.4477153 1-1z" />
                <path id="Shape"
                    d="m13.038 12.177c.3486912-.0778839.6293446-.3358761.7362408-.6767935s.0237951-.7129665-.218-.976c-.241795-.2630336-.6055496-.3770904-.9542408-.2992065-3.86079744.8817554-6.59975941 4.3147924-6.602 8.275.00496051 4.6923641 3.80763587 8.4950395 8.5 8.5h31c4.6944203-.0000001 8.4999999-3.8055797 8.4999999-8.5s-3.8055796-8.4999999-8.4999999-8.5h-14.562c-.9149301-.90003805-2.2501242-1.2251053-3.476387-.8463635-1.2262627.37874179-2.1455902 1.4001374-2.393613 2.6593635-.2220134 1.2497928-1.2988015 2.1668238-2.568 2.187-1.9329966 0-3.5 1.5670034-3.5 3.5s1.5670034 3.5 3.5 3.5c6.224 0 8.891-5.11 9.433-7.815.0728539-.3912234.0779277-.7920578.015-1.185h13.552c3.5898509 0 6.5 2.9101491 6.5 6.5s-2.9101491 6.5-6.5 6.5h-31c-2.6289535.0018978-4.99978-1.5811924-6.0055649-4.0101422-1.0057849-2.4289497-.44814439-5.2246661 1.4125649-7.0818578.8574545-.8634887 1.9437427-1.4640524 3.131-1.731zm16.933.617c-.6915567 3.5856945-3.8192929 6.1838381-7.471 6.206-.8284271 0-1.5-.6715729-1.5-1.5s.6715729-1.5 1.5-1.5c2.2293293.0001653 4.1378981-1.5982452 4.529-3.793.1397477-.7016506.7555679-1.2069497 1.471-1.207.0986973.0003325.1971398.0100428.294.029.8104572.1652836 1.3359326.9532734 1.177 1.765z" />
                <path id="Shape"
                    d="m15 5c-.5522847 0-1 .44771525-1 1s.4477153 1 1 1h1.142c.0928199.35803744.2359091.70111484.425 1.019l-.81.81c-.2599566.25107447-.3642126.62287789-.2726972.97250732.0915155.34962948.3645604.62267438.7141899.71418988.3496294.0915154.7214328-.0127406.9725073-.2726972l.81-.81c.3178852.1890909.6609626.33218011 1.019.425v1.142c0 .5522847.4477153 1 1 1s1-.4477153 1-1v-1.142c.3578924-.09325077.7009107-.23631534 1.019-.425l.81.81c.2510745.2599566.6228779.3642126.9725073.2726972.3496295-.0915155.6226744-.3645604.7141899-.71418988.0915154-.34962943-.0127406-.72143285-.2726972-.97250732l-.81-.81c.1889228-.31796966.3320018-.66102256.425-1.019h1.142c.5522847 0 1-.44771525 1-1s-.4477153-1-1-1h-1.142c-.0929982-.35797744-.2360772-.70103034-.425-1.019l.81-.81c.2599566-.25107447.3642126-.62287789.2726972-.97250732-.0915155-.34962944-.3645604-.6226744-.7141899-.71418984-.3496294-.09151544-.7214328.01274058-.9725073.27269716l-.81.81c-.3180893-.18868466-.6611076-.33174923-1.019-.425v-1.142c0-.55228475-.4477153-1-1-1s-1 .44771525-1 1v1.142c-.3580374.09281989-.7011148.2359091-1.019.425l-.81-.81c-.2510745-.25995658-.6228779-.3642126-.9725073-.27269716-.3496295.09151544-.6226744.3645604-.7141899.71418984-.0915154.34962943.0127406.72143285.2726972.97250732l.81.81c-.1890909.31788516-.3321801.66096256-.425 1.019zm5-1c1.1045695 0 2 .8954305 2 2s-.8954305 2-2 2-2-.8954305-2-2 .8954305-2 2-2z" />
                <path id="Shape"
                    d="m46.5 42c-.5522847 0-1 .4477153-1 1s.4477153 1 1 1c.3947647-.0036919.7747517.1499581 1.056.427.2222786.2203156.3674812.5065121.414.816.0701372.4924593.4915715.8584978.989.859.0475134.0001204.0949724-.0032217.142-.01.546759-.077877.9268666-.5842395.849-1.131-.2512118-1.7089521-1.7227171-2.9718875-3.45-2.961z" />
            </g>
        </g>
    </g>
</svg>